<?xml version="1.0" standalone="no"?>
<!DOCTYPE svg PUBLIC "-//W3C//DTD SVG 20010904//EN"
 "http://www.w3.org/TR/2001/REC-SVG-20010904/DTD/svg10.dtd">
<svg version="1.0" xmlns="http://www.w3.org/2000/svg"
 width="168.000000pt" height="168.000000pt" viewBox="0 0 168.000000 168.000000"
 preserveAspectRatio="xMidYMid meet">
<metadata>
Created by potrace 1.11, written by Peter Selinger 2001-2013
</metadata>
<g transform="translate(0.000000,168.000000) scale(0.100000,-0.100000)"
fill="#000000" stroke="none">
<path d="M768 1625 c-2 -2 -22 -5 -46 -9 -24 -3 -62 -10 -85 -16 -40 -11 -54
-16 -144 -57 -54 -24 -141 -84 -188 -130 -47 -45 -105 -110 -105 -117 0 -3
-13 -25 -30 -49 -24 -36 -44 -75 -55 -107 -1 -3 -5 -14 -9 -25 -30 -80 -34
-93 -42 -175 -12 -107 -6 -209 15 -290 39 -146 107 -265 208 -365 360 -355
939 -291 1216 134 23 36 42 67 43 70 1 6 16 47 31 81 3 8 7 17 7 20 1 3 4 10
7 15 6 9 20 80 24 115 0 9 3 20 6 25 10 18 2 189 -11 250 -8 33 -15 65 -16 70
-14 63 -110 242 -136 253 -4 2 -8 8 -8 12 0 16 -108 119 -167 159 -92 62 -202
107 -313 126 -36 6 -197 14 -202 10z m74 -132 c9 -11 14 -30 11 -48 -5 -37
-32 -95 -44 -95 -5 0 -9 -5 -9 -10 0 -12 -101 -110 -112 -110 -7 0 -33 -51
-58 -115 -16 -41 -64 -140 -69 -145 -9 -8 -55 -104 -56 -115 0 -6 44 -10 110
-11 61 -1 128 -4 150 -8 22 -4 54 -9 72 -11 18 -2 46 -12 63 -21 24 -14 30
-25 30 -51 0 -49 -28 -59 -76 -26 -95 64 -240 91 -345 63 -33 -9 -56 -25 -91
-65 -26 -29 -64 -61 -85 -70 -36 -18 -51 -19 -113 -11 -33 4 -80 34 -80 51 0
18 46 49 95 65 22 7 54 19 72 27 17 7 36 13 41 13 6 0 14 9 17 20 3 11 10 20
16 20 5 0 16 17 24 37 9 21 19 40 23 43 19 13 75 116 103 189 9 23 9 23 -13 7
-13 -9 -43 -25 -68 -36 -25 -11 -52 -24 -61 -29 -21 -12 -49 5 -49 29 0 27 37
50 64 41 14 -6 36 -1 66 13 54 24 132 84 125 95 -2 5 7 23 20 41 13 18 22 36
20 40 -3 4 2 13 10 20 8 7 15 19 15 26 0 8 3 14 8 14 4 0 13 12 20 28 6 15 30
46 52 70 43 46 76 54 102 25z m537 -457 c13 -3 38 -17 57 -31 32 -24 39 -40
35 -73 -3 -23 -63 -71 -123 -99 -32 -15 -58 -30 -58 -34 0 -3 17 -9 38 -13 45
-7 122 -46 158 -80 40 -37 44 -101 9 -155 -15 -22 -32 -41 -38 -41 -6 0 -20
-8 -31 -19 -38 -34 -285 -145 -313 -140 -5 1 -10 0 -13 -1 -28 -11 -129 -26
-169 -24 -51 1 -74 13 -92 46 -8 15 0 25 53 64 62 45 282 159 367 188 48 17
81 8 81 -22 0 -32 -15 -43 -52 -39 -35 4 -92 -10 -153 -38 -17 -8 -41 -18 -55
-24 -83 -35 -154 -89 -118 -92 65 -5 85 -4 99 3 9 4 31 10 49 13 18 3 41 10
50 15 10 5 19 7 22 5 7 -8 193 90 219 114 13 13 34 30 47 38 12 9 22 26 22 39
0 59 -93 93 -273 98 -69 2 -82 5 -88 22 -7 17 -8 17 -8 2 -1 -10 -5 -18 -11
-18 -5 0 -9 -3 -8 -7 1 -5 -11 -34 -25 -67 -15 -32 -27 -64 -27 -70 -1 -6 -9
-28 -18 -48 -17 -36 -19 -37 -40 -22 -12 8 -22 21 -22 29 0 7 -5 15 -10 17
-15 5 7 63 74 193 31 60 56 115 56 122 0 7 9 28 20 48 27 47 26 57 -4 45 -14
-5 -48 -12 -76 -15 -72 -8 -141 -33 -167 -61 -25 -27 -36 -30 -51 -11 -25 31
23 76 98 92 19 4 40 10 45 13 12 8 26 11 80 17 22 3 47 8 55 11 8 3 33 8 55
11 22 3 41 6 43 8 5 4 187 -3 211 -9z"/>
<path d="M798 1450 c-18 -20 -58 -94 -58 -106 0 -13 48 42 69 79 11 21 21 40
21 42 0 11 -17 4 -32 -15z"/>
<path d="M289 745 c-3 -2 -14 -6 -25 -8 -10 -2 -26 -6 -34 -10 -8 -3 -23 -8
-34 -11 -14 -5 -16 -9 -7 -19 12 -15 31 -15 71 -3 23 8 60 39 60 51 0 6 -25 7
-31 0z"/>
<path d="M1204 989 c-2 -4 -11 -6 -18 -3 -16 6 -31 -12 -17 -20 12 -8 2 -41
-33 -120 -31 -70 -32 -76 -6 -49 10 12 36 27 57 33 94 30 213 100 213 124 0 7
-10 18 -22 24 -27 14 -166 23 -174 11z"/>
</g>
</svg>
